HIERARCHY
ROOT hip
{
	OFFSET 0.000000 0.000000 0.000000 
	CHANNELS 6 Xposition Yposition Zposition Xrotation Zrotation Yrotation
	JOINT abdomen
	{
		OFFSET 0.000000 3.402643 0.000000 
		CHANNELS 3 Xrotation Zrotation Yrotation
		JOINT chest
		{
			OFFSET 0.000000 8.438565 -0.680529 
			CHANNELS 3 Xrotation Zrotation Yrotation
			JOINT neck
			{
				OFFSET 0.000000 10.207942 -0.272212 
				CHANNELS 3 Xrotation Zrotation Yrotation
				JOINT head
				{
					OFFSET 0.000000 3.130431 0.000000 
					CHANNELS 3 Xrotation Zrotation Yrotation
					End Site
					{
						OFFSET 0.000000 3.130435 0.000000 
					}
				}
			}
			JOINT lCollar
			{
				OFFSET 3.470700 6.669187 -0.816635 
				CHANNELS 3 Yrotation Zrotation Xrotation
				JOINT lShldr
				{
					OFFSET 3.198488 0.000000 0.000000 
					CHANNELS 3 Zrotation Yrotation Xrotation
					JOINT lForeArm
					{
						OFFSET 10.139888 0.000000 0.000000 
						CHANNELS 3 Yrotation Zrotation Xrotation
						JOINT lHand
						{
							OFFSET 8.370511 0.000000 0.000000 
							CHANNELS 3 Zrotation Yrotation Xrotation
							End Site
							{
								OFFSET 4.083176 0.000000 0.000000 
							}
						}
					}
				}
			}
			JOINT rCollar
			{
				OFFSET -3.470700 6.669187 -0.816635 
				CHANNELS 3 Yrotation Zrotation Xrotation
				JOINT rShldr
				{
					OFFSET -3.198488 0.000000 0.000000 
					CHANNELS 3 Zrotation Yrotation Xrotation
					JOINT rForeArm
					{
						OFFSET -10.139888 0.000000 0.000000 
						CHANNELS 3 Yrotation Zrotation Xrotation
						JOINT rHand
						{
							OFFSET -8.370511 0.000000 0.000000 
							CHANNELS 3 Zrotation Yrotation Xrotation
							End Site
							{
								OFFSET -4.083176 0.000000 0.000000 
							}
						}
					}
				}
			}
		}
	}
	JOINT lThigh
	{
		OFFSET 5.308129 -1.633274 1.361059 
		CHANNELS 3 Xrotation Zrotation Yrotation
		JOINT lShin
		{
			OFFSET -2.041588 -20.007561 0.000000 
			CHANNELS 3 Xrotation Zrotation Yrotation
			JOINT lFoot
			{
				OFFSET 0.000000 -19.190928 -1.224953 
				CHANNELS 3 Xrotation Yrotation Zrotation
				End Site
				{
					OFFSET 0.000000 -2.449906 4.627600 
				}
			}
		}
	}
	JOINT rThigh
	{
		OFFSET -5.308129 -1.633274 1.361059 
		CHANNELS 3 Xrotation Zrotation Yrotation
		JOINT rShin
		{
			OFFSET 2.041588 -20.007561 0.000000 
			CHANNELS 3 Xrotation Zrotation Yrotation
			JOINT rFoot
			{
				OFFSET 0.000000 -19.190928 -1.224953 
				CHANNELS 3 Xrotation Yrotation Zrotation
				End Site
				{
					OFFSET 0.000000 -2.449906 4.627600 
				}
			}
		}
	}
}
MOTION
Frames: 8
Frame Time: 0.033333
33.762863 47.096653 63.054379 -21.830427 38.156410 87.840256 32.802864 2.661567 -4.933315 -20.839844 0.000000 0.000000 38.225918 29.402916 -20.934332 -2.520846 -1.255050 0.218350 -4.754609 -0.109183 -0.002653 -60.872955 -5.917714 -8.377767 -90.668449 -6.938059 14.725418 -9.234771 -24.414984 24.711224 4.754609 0.109183 -0.002672 69.416466 -10.996084 -16.117872 74.135666 0.643204 6.550248 -2.590098 16.646690 9.469130 23.341721 23.873692 19.785480 34.928635 -3.303000 1.411178 -5.053855 4.798299 3.213642 -67.424278 -43.900093 -6.384888 39.215775 10.262447 -6.960518 11.261825 -2.443604 -2.301789 
33.122322 46.826057 63.215317 -20.334234 34.835121 89.621162 33.212078 2.722225 -4.100837 -20.839844 0.000000 0.000000 29.853968 29.538731 -24.173582 -2.520846 -1.255050 0.218350 -4.754609 -0.109183 -0.002653 -66.957413 -2.863859 -7.393671 -92.412941 -7.028446 14.676692 -11.664924 -24.809925 25.573547 4.754609 0.109183 -0.002672 67.698975 -6.093649 -14.165467 77.663338 1.413928 6.063548 -3.256946 16.618225 8.455259 18.989428 22.750927 18.083488 34.132225 -3.899243 2.764358 -9.271803 5.234812 5.512845 -69.647285 -42.919060 -4.611073 59.558197 10.127350 -3.315787 8.522248 -4.019215 -3.354312 
32.419239 46.550392 63.370155 -18.604477 30.951092 90.940079 33.869305 2.285028 -3.519239 -20.839844 0.000000 0.000000 20.101048 29.117073 -27.416811 -2.520846 -1.255050 0.218350 -4.754609 -0.109183 -0.002653 -72.918274 0.542807 -6.696316 -94.476685 -7.353210 14.725766 -14.224954 -25.156378 26.730995 4.754609 0.109183 -0.002672 66.501625 -0.761581 -11.845902 81.807686 2.641217 5.945042 -4.560361 16.576708 7.962694 14.088839 20.984917 16.249741 33.225231 -4.744688 4.688117 -12.702720 5.728525 8.444304 -68.362061 -40.463562 -5.099459 75.645485 9.841769 -0.598055 7.177796 -4.352908 -4.567802 
31.642891 46.217354 63.448341 -16.371527 26.883497 92.728119 34.264042 1.652860 -3.597770 -20.839844 0.000000 0.000000 10.658237 27.972452 -30.377932 -2.520846 -1.255050 0.218350 -4.754609 -0.109183 -0.002653 -77.715645 3.221901 -5.978487 -95.404579 -8.172171 14.771473 -15.635282 -24.831865 27.343056 4.754609 0.109183 -0.002672 65.786385 3.884715 -9.281954 86.870659 4.560713 5.851237 -6.546323 16.867748 7.697348 8.491077 18.890093 14.625493 33.021805 -5.804102 6.538549 -15.291989 5.567764 11.379669 -63.566486 -37.943199 -7.076921 87.348381 9.696329 1.104497 6.410507 -4.852741 -5.471071 
30.837255 45.859947 63.476768 -13.905804 22.974949 94.815834 34.342297 0.815834 -3.640340 -20.839844 0.000000 0.000000 2.539233 26.411188 -33.636925 -2.520846 -1.255050 0.218350 -4.754609 -0.109183 -0.002653 -81.272484 4.577252 -4.797001 -94.563469 -9.532646 14.598872 -15.361951 -24.073141 26.825895 4.754609 0.109183 -0.002672 65.932816 7.407396 -6.781452 92.479706 6.589622 5.700938 -8.032722 17.849268 7.971311 2.498944 16.686737 13.220985 33.886322 -6.896405 7.685489 -16.352009 5.015101 12.812491 -55.740692 -34.754608 -9.383039 94.629715 9.207370 1.977801 5.984036 -5.386049 -5.463045 
30.141172 45.497971 63.505711 -11.607062 19.574478 96.221481 34.160515 -0.304638 -2.940090 -20.839844 0.000000 0.000000 -3.814929 24.513790 -36.964432 -2.520846 -1.255050 0.218350 -4.754609 -0.109183 -0.002653 -84.079353 5.735486 -3.569451 -93.062279 -11.216573 14.392509 -14.211480 -23.622036 25.884892 4.754609 0.109183 -0.002672 67.013672 9.879655 -4.118612 97.812706 8.784067 5.740349 -8.769315 19.368399 9.160677 -2.754007 14.437824 12.124798 35.100407 -7.933194 8.670671 -16.017960 4.857714 13.211637 -45.885506 -29.586973 -10.855296 97.505592 8.241619 1.956031 5.761949 -5.989327 -5.538138 
29.566633 45.095894 63.501652 -9.534869 16.867237 96.927635 33.882511 -1.251011 -2.008874 -20.839844 0.000000 0.000000 -8.267947 21.954884 -39.396900 -2.520846 -1.255050 0.218350 -4.754609 -0.109183 -0.002653 -86.543892 7.497990 -2.929468 -92.240173 -12.681219 14.472628 -13.890473 -23.617678 25.730145 4.754609 0.109183 -0.002672 68.329750 11.807252 -0.818053 102.550079 11.860076 5.586422 -9.740305 20.963461 10.731792 -6.844255 12.387688 11.654972 36.371994 -9.118989 9.586619 -16.087536 4.461348 13.770355 -34.949387 -23.123379 -11.023670 96.258179 7.324176 0.789028 5.296578 -7.188940 -5.758701 
29.069613 44.618156 63.468143 -7.374342 14.784503 97.903664 33.661102 -1.831989 -1.825877 -20.839844 0.000000 0.000000 -11.043595 19.432934 -40.793434 -2.520846 -1.255050 0.218350 -4.754609 -0.109183 -0.002653 -88.519592 9.311125 -2.731607 -91.929230 -13.832173 14.484873 -15.175508 -23.251389 25.887442 4.754609 0.109183 -0.002672 70.036423 13.524540 3.059774 106.624908 15.451641 4.934227 -10.607686 22.299973 12.326712 -9.957382 10.677778 11.950477 37.786457 -10.681251 10.161652 -16.524685 3.091630 14.387608 -22.877110 -17.310446 -10.951656 91.425041 7.568417 -1.094996 4.897706 -8.966779 -5.724586 
